<?xml version="1.0" encoding="UTF-8" standalone="no"?>
<svg
   xmlns:dc="http://purl.org/dc/elements/1.1/"
   xmlns:cc="http://creativecommons.org/ns#"
   xmlns:rdf="http://www.w3.org/1999/02/22-rdf-syntax-ns#"
   xmlns:svg="http://www.w3.org/2000/svg"
   xmlns="http://www.w3.org/2000/svg"
   xmlns:sodipodi="http://sodipodi.sourceforge.net/DTD/sodipodi-0.dtd"
   xmlns:inkscape="http://www.inkscape.org/namespaces/inkscape"
   width="1920"
   height="310"
   viewBox="0 0 508 82.020824"
   version="1.1"
   id="svg8"
   inkscape:version="1.0 (4035a4fb49, 2020-05-01)"
   sodipodi:docname="footer.svg">
  <defs
     id="defs2" />
  <sodipodi:namedview
     id="base"
     pagecolor="#ffffff"
     bordercolor="#666666"
     borderopacity="1.0"
     inkscape:pageopacity="0.0"
     inkscape:pageshadow="2"
     inkscape:zoom="0.35"
     inkscape:cx="961.252"
     inkscape:cy="420.66465"
     inkscape:document-units="mm"
     inkscape:current-layer="layer1"
     inkscape:document-rotation="0"
     showgrid="false"
     inkscape:window-width="960"
     inkscape:window-height="1017"
     inkscape:window-x="952"
     inkscape:window-y="-8"
     inkscape:window-maximized="0"
     inkscape:snap-global="true"
     units="px"
     showguides="true"
     inkscape:guide-bbox="true">
    <inkscape:grid
       type="xygrid"
       id="grid330" />
  </sodipodi:namedview>
  <metadata
     id="metadata5">
    <rdf:RDF>
      <cc:Work
         rdf:about="">
        <dc:format>image/svg+xml</dc:format>
        <dc:type
           rdf:resource="http://purl.org/dc/dcmitype/StillImage" />
        <dc:title></dc:title>
      </cc:Work>
    </rdf:RDF>
  </metadata>
  <g
     inkscape:label="Layer 1"
     inkscape:groupmode="layer"
     id="layer1">
    <path
       id="rect328"
       style="fill:#ffffff;stroke:none;stroke-width:3.01734;stroke-linecap:round;stroke-linejoin:round"
       d="m -14.273502,2.6458333 c 179.076222,0 358.152422,0 537.228642,0 0,26.8096727 0,53.6193447 0,80.4290177 -179.07622,0 -358.15242,0 -537.228642,0 0,-26.809673 0,-53.619345 0,-80.4290177 z" />
    <path
       id="path316"
       d="M -18.330866,0 4.5827217,13.229166 22.913593,2.6458332 41.244463,13.229166 59.575333,2.6458332 77.906203,13.229166 96.237074,2.6458332 114.56794,13.229166 132.89881,2.6458332 151.22968,13.229166 169.56055,2.6458332 187.89142,13.229166 206.22229,2.6458332 224.55316,13.229166 242.88403,2.6458332 261.21491,13.229166 279.54577,2.6458332 297.87664,13.229166 316.2075,2.6458332 334.53839,13.229166 352.86925,2.6458332 371.20011,13.229166 389.531,2.6458332 407.86186,13.229166 426.19273,2.6458332 444.52361,13.229166 462.85448,2.6458332 481.18534,13.229166 490.35077,7.9374996 V -2.6458332 L -18.330866,-5.2916663 Z"
       style="fill:#afafe9;stroke:none;stroke-width:0.264583px;stroke-linecap:butt;stroke-linejoin:miter;stroke-opacity:1" />
    <path
       style="fill:#8787de;stroke:none;stroke-width:0.264583px;stroke-linecap:butt;stroke-linejoin:miter;stroke-opacity:1"
       d="M 0,0 22.913588,13.229166 41.244459,2.6458332 59.575329,13.229166 77.906199,2.6458332 96.237069,13.229166 114.56794,2.6458332 132.89881,13.229166 151.22968,2.6458332 169.56055,13.229166 187.89142,2.6458332 206.22229,13.229166 224.55316,2.6458332 242.88403,13.229166 261.2149,2.6458332 279.54578,13.229166 297.87664,2.6458332 316.20751,13.229166 334.53837,2.6458332 352.86926,13.229166 371.20012,2.6458332 389.53098,13.229166 407.86187,2.6458332 426.19273,13.229166 444.5236,2.6458332 462.85448,13.229166 481.18535,2.6458332 499.51621,13.229166 508.68164,7.9374996 V -2.6458332 L 0,-5.2916663 Z"
       id="path314" />
  </g>
</svg>
