<?xml version="1.0" encoding="UTF-8" standalone="no"?>
<svg
   xmlns:dc="http://purl.org/dc/elements/1.1/"
   xmlns:cc="http://creativecommons.org/ns#"
   xmlns:rdf="http://www.w3.org/1999/02/22-rdf-syntax-ns#"
   xmlns:svg="http://www.w3.org/2000/svg"
   xmlns="http://www.w3.org/2000/svg"
   xmlns:sodipodi="http://sodipodi.sourceforge.net/DTD/sodipodi-0.dtd"
   xmlns:inkscape="http://www.inkscape.org/namespaces/inkscape"
   sodipodi:docname="hamburger.svg"
   inkscape:version="1.0 (4035a4fb49, 2020-05-01)"
   id="svg8"
   version="1.1"
   viewBox="0 0 285.74999 285.75001"
   height="1080"
   width="1080">
  <defs
     id="defs2" />
  <sodipodi:namedview
     inkscape:snap-bbox-midpoints="true"
     inkscape:snap-bbox-edge-midpoints="true"
     inkscape:bbox-nodes="true"
     inkscape:bbox-paths="true"
     inkscape:snap-bbox="true"
     inkscape:window-maximized="1"
     inkscape:window-y="-8"
     inkscape:window-x="-8"
     inkscape:window-height="1017"
     inkscape:window-width="1920"
     units="px"
     showgrid="true"
     inkscape:document-rotation="0"
     inkscape:current-layer="layer1"
     inkscape:document-units="mm"
     inkscape:cy="607.71747"
     inkscape:cx="692.91192"
     inkscape:zoom="0.58677734"
     inkscape:pageshadow="2"
     inkscape:pageopacity="0.0"
     borderopacity="1.0"
     bordercolor="#666666"
     pagecolor="#ffffff"
     id="base">
    <inkscape:grid
       id="grid833"
       type="xygrid" />
  </sodipodi:namedview>
  <metadata
     id="metadata5">
    <rdf:RDF>
      <cc:Work
         rdf:about="">
        <dc:format>image/svg+xml</dc:format>
        <dc:type
           rdf:resource="http://purl.org/dc/dcmitype/StillImage" />
        <dc:title />
      </cc:Work>
    </rdf:RDF>
  </metadata>
  <g
     id="layer1"
     inkscape:groupmode="layer"
     inkscape:label="Layer 1">
    <g
       id="g876">
      <path
         id="rect835"
         style="fill:#000000;stroke:none;stroke-width:3.10155;stroke-linecap:round;stroke-linejoin:round"
         d="M 29.088277,7.0296795e-7 A 29.095218,29.095218 0 0 0 -0.0065875,29.095383 29.095218,29.095218 0 0 0 29.088277,58.190247 29.095218,29.095218 0 0 0 30.097001,58.172676 H 256.63666 A 29.115602,29.086273 0 0 0 285.75219,29.08608 29.115602,29.086273 0 0 0 256.64803,7.0296795e-7 H 29.106364 a 29.095218,29.095218 0 0 0 -0.01809,0 z" />
      <path
         d="M 29.092668,227.55975 A 29.095218,29.095218 0 0 0 -0.002195,256.65514 29.095218,29.095218 0 0 0 29.092668,285.75 29.095218,29.095218 0 0 0 30.101392,285.7324 H 256.64105 a 29.115602,29.086273 0 0 0 29.11554,-29.08657 29.115602,29.086273 0 0 0 -29.10417,-29.08608 H 29.110755 a 29.095218,29.095218 0 0 0 -0.01809,0 z"
         style="fill:#000000;stroke:none;stroke-width:3.10155;stroke-linecap:round;stroke-linejoin:round"
         id="path869" />
      <path
         id="path871"
         style="fill:#000000;stroke:none;stroke-width:3.10155;stroke-linecap:round;stroke-linejoin:round"
         d="m 29.092668,108.48821 a 29.095218,29.095218 0 0 0 -29.094863,29.09539 29.095218,29.095218 0 0 0 29.094863,29.09486 29.095218,29.095218 0 0 0 1.008724,-0.0176 H 256.64105 a 29.115602,29.086273 0 0 0 29.11554,-29.08657 29.115602,29.086273 0 0 0 -29.10417,-29.08608 H 29.110755 a 29.095218,29.095218 0 0 0 -0.01809,0 z" />
    </g>
  </g>
</svg>
