<?xml version="1.0" encoding="UTF-8" standalone="no"?>
<svg
   xmlns:dc="http://purl.org/dc/elements/1.1/"
   xmlns:cc="http://creativecommons.org/ns#"
   xmlns:rdf="http://www.w3.org/1999/02/22-rdf-syntax-ns#"
   xmlns:svg="http://www.w3.org/2000/svg"
   xmlns="http://www.w3.org/2000/svg"
   xmlns:sodipodi="http://sodipodi.sourceforge.net/DTD/sodipodi-0.dtd"
   xmlns:inkscape="http://www.inkscape.org/namespaces/inkscape"
   id="undraw_forming_ideas_0pav"
   width="1064.696"
   height="772.527"
   viewBox="0 0 1064.696 772.527"
   version="1.1"
   sodipodi:docname="herobox.svg"
   inkscape:version="1.0 (4035a4fb49, 2020-05-01)">
  <metadata
     id="metadata45">
    <rdf:RDF>
      <cc:Work
         rdf:about="">
        <dc:format>image/svg+xml</dc:format>
        <dc:type
           rdf:resource="http://purl.org/dc/dcmitype/StillImage" />
      </cc:Work>
    </rdf:RDF>
  </metadata>
  <defs
     id="defs43" />
  <sodipodi:namedview
     inkscape:document-rotation="0"
     pagecolor="#ffffff"
     bordercolor="#666666"
     borderopacity="1"
     objecttolerance="10"
     gridtolerance="10"
     guidetolerance="10"
     inkscape:pageopacity="0"
     inkscape:pageshadow="2"
     inkscape:window-width="1920"
     inkscape:window-height="1017"
     id="namedview41"
     showgrid="false"
     inkscape:zoom="0.69668242"
     inkscape:cx="325.29542"
     inkscape:cy="307.04499"
     inkscape:window-x="-8"
     inkscape:window-y="-8"
     inkscape:window-maximized="1"
     inkscape:current-layer="undraw_forming_ideas_0pav" />
  <g
     id="g85"
     transform="translate(-4.8046875e-4,-3.9992461e-4)">
    <path
       fill="#f2f2f2"
       transform="translate(-59.514,-61.032)"
       d="M 442.258,273.721 A 103.4,103.4 0 0 1 290.231,270.4 L 59.514,488.789 383.947,831.541 693.193,538.824 Z"
       data-name="Path 1"
       id="Path_1" />
    <path
       fill="#f2f2f2"
       transform="translate(-63.186,-59.774)"
       d="m 371.255,282.552 a 90.255,90.255 0 0 0 65.2,-27.729 l -64.335,-67.967 -68.736,65.062 a 90.3,90.3 0 0 0 67.871,30.634 z"
       data-name="Path 2"
       id="Path_2" />
    <path
       fill="#ff3d60"
       transform="translate(-66.997,-60.272)"
       d="M 881.517,382.451 A 162.351,162.351 0 0 1 719,544.966 q -1.389,0 -2.778,-0.03 c -3.9,-0.059 -7.752,-0.256 -11.583,-0.591 a 162.522,162.522 0 1 1 176.876,-161.9 z"
       data-name="Path 3"
       id="Path_3" />
    <path
       opacity="0.1"
       transform="translate(-67.034,-60.272)"
       d="m 813.219,323.64 a 161.6,161.6 0 0 0 19.589,-58.189 162.515,162.515 0 0 0 -273.831,95.135 161.9,161.9 0 0 0 98.423,44.883 c 3.832,0.335 7.682,0.532 11.583,0.591 q 1.389,0.03 2.778,0.03 a 162.276,162.276 0 0 0 141.458,-82.45 z"
       data-name="Path 4"
       id="Path_4" />
    <rect
       fill="#2f2e41"
       transform="translate(462.896,480.755)"
       height="291.543"
       width="261.01001"
       data-name="Rectangle 9"
       id="Rectangle_9"
       x="0"
       y="0" />
    <path
       opacity="0.1"
       transform="translate(-66.991,-62.422)"
       d="m 874.488,445.273 a 162.707,162.707 0 0 1 -113.869,94.949 h 36.187 v 291.543 h -240.74 l 135.1,-234.013 30.957,-53.62 2.255,-3.91 102.468,-177.467 z"
       data-name="Path 5"
       id="Path_5" />
    <path
       fill="#3f3d56"
       transform="translate(-7.98,-4.621)"
       d="M 801.324,306.924 937,541.922 l 135.674,235 h -542.7 l 135.676,-235 z"
       data-name="Path 6"
       id="Path_6" />
    <rect
       fill="#2f2e41"
       transform="translate(36.416,770.328)"
       height="1.97"
       width="1028.281"
       data-name="Rectangle 10"
       id="Rectangle_10"
       x="0"
       y="0" />
    <path
       fill="#9f616a"
       transform="translate(-2.069,-10.948)"
       d="m 170.992,736.688 -1.8,14.981 -10.187,4.794 -11.386,-3.6 -7.79,3.6 -2.4,-13.782 13.788,-15.581 z"
       data-name="Path 7"
       id="Path_7" />
    <path
       fill="#2f2e41"
       transform="translate(-61.325,-68.951)"
       d="m 223.056,806.076 c 0,0 9.291,-10.831 9.439,-5.415 0.148,5.416 20.523,23.992 20.523,23.992 0,0 31.759,9.588 7.191,15.58 -24.568,5.992 -78.5,-11.385 -80.3,-14.981 -1.8,-3.596 14.981,-31.16 16.779,-28.763 1.798,2.397 10.789,10.786 26.368,9.587 z"
       data-name="Path 8"
       id="Path_8" />
    <path
       fill="#2f2e41"
       transform="translate(-61.65,-66.379)"
       d="m 246.153,625.531 c 0,0 3.6,28.164 0,32.359 -3.6,4.195 -1.8,12.584 0,13.782 1.8,1.198 -2.4,5.992 -5.393,8.389 -2.993,2.397 -7.191,13.183 -7.191,13.183 0,0 -16.179,42.546 -16.179,46.74 0,4.194 -7.191,13.183 -6.592,16.179 0.599,2.996 -4.195,12.584 -3.6,14.382 0.595,1.798 -7.79,17.977 -5.393,20.374 2.397,2.397 35.355,10.786 33.557,5.393 -1.798,-5.393 -3,-11.985 -1.8,-11.985 1.2,0 6.592,-6.592 5.393,-8.989 -1.199,-2.397 35.954,-65.317 35.954,-65.317 z"
       data-name="Path 9"
       id="Path_9" />
    <path
       opacity="0.1"
       transform="translate(-61.325,-68.951)"
       d="m 223.056,806.076 c 0,0 9.291,-10.831 9.439,-5.415 0.148,5.416 20.523,23.992 20.523,23.992 0,0 31.759,9.588 7.191,15.58 -24.568,5.992 -78.5,-11.385 -80.3,-14.981 -1.8,-3.596 14.981,-31.16 16.779,-28.763 1.798,2.397 10.789,10.786 26.368,9.587 z"
       data-name="Path 10"
       id="Path_10" />
    <path
       opacity="0.1"
       transform="translate(-61.65,-66.379)"
       d="m 246.153,625.531 c 0,0 3.6,28.164 0,32.359 -3.6,4.195 -1.8,12.584 0,13.782 1.8,1.198 -2.4,5.992 -5.393,8.389 -2.993,2.397 -7.191,13.183 -7.191,13.183 0,0 -16.179,42.546 -16.179,46.74 0,4.194 -7.191,13.183 -6.592,16.179 0.599,2.996 -4.195,12.584 -3.6,14.382 0.595,1.798 -7.79,17.977 -5.393,20.374 2.397,2.397 35.355,10.786 33.557,5.393 -1.798,-5.393 -3,-11.985 -1.8,-11.985 1.2,0 6.592,-6.592 5.393,-8.989 -1.199,-2.397 35.954,-65.317 35.954,-65.317 z"
       data-name="Path 11"
       id="Path_11" />
    <path
       fill="#9f616a"
       transform="translate(-3.352,-10.981)"
       d="m 248.977,729.282 6.591,16.779 -3,23.37 -19.176,-1.2 -10.786,-9.588 v -20.372 z"
       data-name="Path 12"
       id="Path_12" />
    <path
       fill="#2f2e41"
       transform="translate(-62.733,-68.869)"
       d="m 304.762,807.544 c 0,0 6.592,-21.572 10.187,-15.58 a 94.829,94.829 0 0 1 5.992,11.985 c 0,0 29.363,19.176 37.153,19.176 7.79,0 14.981,9.588 4.794,13.183 -10.187,3.595 -88.088,8.389 -89.286,0 -1.198,-8.389 1.2,-35.355 4.794,-32.359 3.594,2.996 22.171,9.587 26.366,3.595 z"
       data-name="Path 13"
       id="Path_13" />
    <path
       fill="#9f616a"
       transform="translate(-63.223,-65.065)"
       d="m 320.233,538.279 c 0,0 26.412,17.949 27.611,20.346 1.199,2.397 16.524,9.767 3.94,15.759 -12.584,5.992 -45.932,-31.91 -45.932,-31.91 z"
       data-name="Path 14"
       id="Path_14" />
    <path
       fill="#575a88"
       transform="translate(-63.104,-64.534)"
       d="m 306.931,502.991 c 0,0 19.176,37.153 15.58,38.351 -3.596,1.198 -17.977,8.389 -17.977,8.389 l -6.592,-37.752 z"
       data-name="Path 15"
       id="Path_15" />
    <path
       opacity="0.1"
       transform="translate(-63.104,-64.534)"
       d="m 306.931,502.991 c 0,0 19.176,37.153 15.58,38.351 -3.596,1.198 -17.977,8.389 -17.977,8.389 l -6.592,-37.752 z"
       data-name="Path 16"
       id="Path_16" />
    <path
       fill="#2f2e41"
       transform="translate(-61.94,-65.006)"
       d="m 304.569,534.624 c 0,0 4.195,31.16 2.4,37.752 -1.795,6.592 1.2,105.466 -1.2,110.858 -2.4,5.392 -4.195,40.149 -4.195,44.344 0,4.195 4.794,38.351 5.992,41.347 1.198,2.996 4.794,13.183 3,17.977 -1.794,4.794 -26.371,16.778 -29.966,12.583 -3.595,-4.195 -0.6,-17.378 -3.6,-17.977 -3,-0.599 -6.592,-28.763 -6.592,-28.763 l -19.77,-110.26 c 0,0 -37.153,-92.285 -28.764,-101.27 8.389,-8.985 82.695,-6.591 82.695,-6.591 z"
       data-name="Path 17"
       id="Path_17" />
    <circle
       fill="#9f616a"
       transform="translate(191.094,198.164)"
       r="29.363001"
       cy="29.363001"
       cx="29.363001"
       data-name="Ellipse 1"
       id="Ellipse_1" />
    <path
       fill="#9f616a"
       transform="translate(-62.489,-61.405)"
       d="m 293.732,312.9 c 0,0 -9.588,25.168 -8.389,30.561 1.199,5.393 -28.164,-9.588 -28.164,-9.588 0,0 1.8,-29.362 0,-37.153 -1.8,-7.791 36.553,16.18 36.553,16.18 z"
       data-name="Path 18"
       id="Path_18" />
    <path
       fill="#575a88"
       transform="translate(-61.798,-61.813)"
       d="m 212.528,477.266 c 0.132,5.028 0.216,8.024 0.216,8.024 0,0 -1.8,27.565 1.2,36.553 3,8.988 3,15.58 4.794,21.573 0.527,1.744 7.7,2.679 17.773,3.092 9.24,0.378 20.919,0.324 32.131,0.066 18.564,-0.431 35.87,-1.426 38.783,-1.96 6.592,-1.2 -1.2,-11.385 1.2,-16.779 2.4,-5.394 -4.195,-74.305 -4.195,-74.305 0,0 0.6,-38.95 -2.4,-53.931 -3,-14.981 -14.382,-38.95 -16.779,-41.946 -2.397,-2.996 -0.6,-4.794 4.794,-8.389 5.394,-3.595 0,-17.378 0,-17.378 -10.187,-8.389 -35.954,-9.588 -35.954,-9.588 0,0 -39.55,40.748 -41.947,49.137 -1.45,5.069 -0.929,45.566 -0.294,76.834 0.25,11.763 0.504,22.225 0.678,28.997 z"
       data-name="Path 19"
       id="Path_19" />
    <path
       fill="#9f616a"
       transform="translate(-62.252,-65.322)"
       d="m 263.533,555.314 c 0,0 22.771,46.74 4.794,49.737 C 250.35,608.048 241.361,562.5 241.361,562.5 Z"
       data-name="Path 20"
       id="Path_20" />
    <path
       fill="#2f2e41"
       transform="translate(-62.246,-60.724)"
       d="m 310.158,273.367 c 1.038,-5.036 -2.81,-9.744 -6.864,-12.907 a 50.161,50.161 0 0 0 -30.86,-10.523 c -7.858,0.043 -15.969,2.121 -21.908,7.267 -6.928,6 -10.088,15.627 -9.506,24.774 0.582,9.147 4.56,17.824 9.926,25.255 2.576,3.567 6.712,7.259 10.827,5.7 a 10.063,10.063 0 0 0 4,-3.383 62.115,62.115 0 0 0 6.87,-10.55 c 1.473,-2.862 2.749,-5.879 4.836,-8.329 2.087,-2.45 5.225,-4.293 8.414,-3.853 2.634,0.363 5.218,2.218 7.73,1.347 2.795,-0.969 3.471,-4.543 3.693,-7.493 0.244,-3.233 0.071,-6.979 0.969,-10.036 0.982,0.527 11.39,5.144 11.873,2.731 z"
       data-name="Path 21"
       id="Path_21" />
    <path
       opacity="0.1"
       transform="translate(-61.771,-62.516)"
       d="m 212.5,477.969 c 6.711,24.2 22.106,64.993 22.987,66.749 0.222,0.449 0.569,1.33 0.995,2.493 9.24,0.378 20.919,0.324 32.131,0.066 -1.738,-4.542 -3.763,-8.929 -3.763,-10.349 0,-3 -14.382,-80.3 -14.382,-80.3 0,0 11.385,-34.156 21.573,-62.92 10.188,-28.764 -30.261,-23.071 -30.261,-23.071 -21.573,-5.393 -25.468,3.9 -25.468,3.9 0,0 -1.9,50.516 -4.488,74.437 -0.665,6.13 -1.372,10.511 -2.1,11.853 -0.963,1.753 0.332,8.357 2.776,17.142 z"
       data-name="Path 22"
       id="Path_22" />
    <path
       fill="#575a88"
       transform="translate(-61.707,-62.233)"
       d="m 250.4,350.881 c 0,0 27.565,11.385 17.378,40.149 -10.187,28.764 -21.572,62.92 -21.572,62.92 0,0 14.382,77.3 14.382,80.3 0,3 8.989,19.175 5.393,22.172 -3.596,2.997 -27.565,8.989 -28.164,5.992 -0.599,-2.997 -5.393,-17.977 -6.592,-20.374 -1.199,-2.397 -29.363,-77.3 -25.767,-83.893 2.646,-4.851 4.967,-49.291 6.009,-72.427 A 38.039,38.039 0 0 1 231.3,353.691 c 5.588,-2.961 12.093,-4.562 19.1,-2.81 z"
       data-name="Path 23"
       id="Path_23" />
    <rect
       fill="#ff3d60"
       transform="translate(263.937,464.011)"
       height="35.458"
       width="35.458"
       data-name="Rectangle 11"
       id="Rectangle_11"
       x="0"
       y="0" />
    <circle
       fill="#3f3d56"
       transform="translate(270.832,442.342)"
       r="10.834"
       cy="10.834"
       cx="10.834"
       data-name="Ellipse 2"
       id="Ellipse_2" />
    <circle
       fill="#ff6584"
       transform="translate(646.914,1.674)"
       r="53.497002"
       cy="53.497002"
       cx="53.497002"
       data-name="Ellipse 3"
       id="Ellipse_3" />
    <path
       fill="#f2f2f2"
       transform="translate(-68.58,-57.831)"
       d="m 768.847,149.544 c 0,40.364 -24,54.457 -53.6,54.457 -29.6,0 -53.6,-14.093 -53.6,-54.457 0,-40.364 53.6,-91.712 53.6,-91.712 0,0 53.6,51.348 53.6,91.712 z"
       data-name="Path 24"
       id="Path_24" />
    <path
       fill="#3f3d56"
       transform="translate(-9.527)"
       d="m 654.246,139.995 0.549,-33.781 22.844,-41.791 -22.757,36.492 0.246,-15.189 15.744,-30.236 -15.679,26.217 v 0 L 655.636,54.389 672.5,30.317 655.706,50.092 655.983,0 l -1.742,66.313 0.144,-2.736 -17.141,-26.236 16.866,31.488 -1.6,30.511 -0.047,-0.811 -19.76,-27.61 19.7,30.471 -0.2,3.816 -0.035,0.057 0.017,0.313 -4.052,77.407 h 5.413 L 654.2,143 673.852,112.6 Z"
       data-name="Path 25"
       id="Path_25" />
    <path
       fill="#f2f2f2"
       transform="translate(-70.576,-58.566)"
       d="m 899.985,210.609 c -12.807,38.278 -40.034,44.03 -68.1,34.638 -28.066,-9.392 -46.355,-30.37 -33.548,-68.648 12.807,-38.278 79.925,-69.969 79.925,-69.969 0,0 34.531,65.702 21.723,103.979 z"
       data-name="Path 26"
       id="Path_26" />
    <path
       fill="#3f3d56"
       transform="translate(-11.343,-0.734)"
       d="m 772.756,180.941 11.238,-31.861 34.923,-32.38 -33.16,27.386 5.054,-14.326 24.523,-23.678 -23.187,19.887 v 0 l 9.089,-25.766 23.625,-17.479 -22.2,13.427 16.161,-47.421 -22.692,62.334 1,-2.549 -7.93,-30.315 6,35.212 -11.195,28.427 0.213,-0.783 -9.974,-32.456 9.014,35.147 -1.4,3.555 -0.052,0.043 -0.084,0.3 -28.4,72.121 5.134,1.718 13.3,-37.71 28.281,-22.591 z"
       data-name="Path 27"
       id="Path_27" />
    <path
       fill="#f2f2f2"
       transform="translate(-66.539,-58.671)"
       d="m 629.918,179.914 c 14.516,37.663 -2.805,59.443 -30.425,70.088 -27.62,10.645 -55.078,6.124 -69.594,-31.538 -14.516,-37.662 17.026,-104.851 17.026,-104.851 0,0 68.475,28.638 82.993,66.301 z"
       data-name="Path 28"
       id="Path_28" />
    <path
       fill="#3f3d56"
       transform="translate(-7.279,-0.841)"
       d="m 536.19,187.113 -11.637,-31.713 6.286,-47.21 -8.111,42.235 -5.233,-14.262 3.817,-33.875 -5.2,30.1 v 0 l -9.411,-25.65 7.074,-28.524 -8.554,24.486 -17.757,-46.84 22.222,62.5 -0.85,-2.6 -25.429,-18.318 27.061,23.316 9.482,29.042 -0.335,-0.739 -28.367,-18.656 29.341,21.347 1.186,3.632 -0.013,0.066 0.128,0.287 24.057,73.685 5.053,-1.946 -13.773,-37.541 7.406,-35.429 z"
       data-name="Path 29"
       id="Path_29" />
    <path
       fill="#ff3d60"
       transform="translate(-66.146,-64.325)"
       d="m 515.7,505.584 c -3.321,5.3 -7.63,5.173 -11.514,2.737 -3.884,-2.436 -5.875,-6.259 -2.554,-11.557 3.321,-5.298 14.58,-7.627 14.58,-7.627 0,0 2.807,11.15 -0.512,16.447 z"
       data-name="Path 30"
       id="Path_30" />
    <path
       fill="#ff3d60"
       transform="translate(-72.188,-61.946)"
       d="m 917.816,344.439 c 0.615,6.222 -2.87,8.76 -7.433,9.21 -4.563,0.45 -8.476,-1.356 -9.091,-7.578 -0.615,-6.222 6.865,-14.953 6.865,-14.953 0,0 9.043,7.098 9.659,13.321 z"
       data-name="Path 31"
       id="Path_31" />
    <path
       fill="#ff3d60"
       transform="translate(-65.875,-62.601)"
       d="m 497.762,391.037 c -3.321,5.3 -7.63,5.173 -11.514,2.737 -3.884,-2.436 -5.874,-6.259 -2.554,-11.557 3.32,-5.298 14.58,-7.627 14.58,-7.627 0,0 2.808,11.15 -0.512,16.447 z"
       data-name="Path 32"
       id="Path_32" />
  </g>
</svg>
