<?xml version="1.0" encoding="UTF-8" standalone="no"?>
<svg
   xmlns:dc="http://purl.org/dc/elements/1.1/"
   xmlns:cc="http://creativecommons.org/ns#"
   xmlns:rdf="http://www.w3.org/1999/02/22-rdf-syntax-ns#"
   xmlns:svg="http://www.w3.org/2000/svg"
   xmlns="http://www.w3.org/2000/svg"
   xmlns:sodipodi="http://sodipodi.sourceforge.net/DTD/sodipodi-0.dtd"
   xmlns:inkscape="http://www.inkscape.org/namespaces/inkscape"
   height="512pt"
   width="512pt"
   inkscape:version="1.0 (4035a4fb49, 2020-05-01)"
   sodipodi:docname="behance.svg"
   xml:space="preserve"
   viewBox="0 0 682.66669 682.66669"
   y="0px"
   x="0px"
   id="Layer_1"
   version="1.1"><metadata
   id="metadata61"><rdf:RDF><cc:Work
       rdf:about=""><dc:format>image/svg+xml</dc:format><dc:type
         rdf:resource="http://purl.org/dc/dcmitype/StillImage" /><dc:title></dc:title></cc:Work></rdf:RDF></metadata><defs
   id="defs59">
	

		
	
	

	

	

		
	
		
	
		
	</defs><sodipodi:namedview
   units="pt"
   inkscape:current-layer="Layer_1"
   inkscape:window-maximized="1"
   inkscape:window-y="-8"
   inkscape:window-x="-8"
   inkscape:cy="193.94143"
   inkscape:cx="25.899897"
   inkscape:zoom="0.42129263"
   showgrid="false"
   id="namedview57"
   inkscape:window-height="1017"
   inkscape:window-width="1920"
   inkscape:pageshadow="2"
   inkscape:pageopacity="0"
   guidetolerance="10"
   gridtolerance="10"
   objecttolerance="10"
   borderopacity="1"
   bordercolor="#666666"
   pagecolor="#ffffff"
   inkscape:document-rotation="0"
   inkscape:snap-bbox="true"
   inkscape:bbox-paths="true"
   inkscape:bbox-nodes="true"
   inkscape:snap-bbox-edge-midpoints="true"
   inkscape:snap-bbox-midpoints="true"
   inkscape:object-paths="true"
   inkscape:snap-intersection-paths="true"
   inkscape:snap-smooth-nodes="true"><inkscape:grid
     type="xygrid"
     id="grid902" /><sodipodi:guide
     id="guide864"
     orientation="0,682.66667"
     position="0,682.66667" /><sodipodi:guide
     id="guide866"
     orientation="682.66667,0"
     position="682.66667,682.66667" /><sodipodi:guide
     id="guide868"
     orientation="0,-682.66667"
     position="682.66667,0" /><sodipodi:guide
     id="guide870"
     orientation="-682.66667,0"
     position="0,0" /></sodipodi:namedview>



<g
   transform="scale(1.3534232)"
   id="g875"><path
     style="opacity:1;fill:#0053f7;fill-opacity:1;stroke-width:0.985156"
     id="path878"
     fill="url(#a)"
     d="M 495.76446,90.218751 C 491.17342,47.202836 457.20097,13.222649 414.18119,8.6355143 306.29894,-2.8785048 198.10106,-2.8785048 90.22259,8.6355143 47.20284,13.226492 13.226494,47.202836 8.6355151,90.218751 -2.878505,198.0972 -2.878505,306.29888 8.6355151,414.1774 c 4.5909789,43.01972 38.5673249,76.99607 81.5832409,81.58705 107.878444,11.51406 216.080184,11.51406 323.962434,0 43.01978,-4.59098 76.99223,-38.56733 81.58327,-81.58705 11.51404,-107.87852 11.51404,-216.07634 0,-323.958649 z m 0,0" /><g
     id="g900"><path
       id="path846"
       style="opacity:1;fill:#fdfeff;fill-opacity:1;stroke-width:0.985577"
       d="m 98.470703,148 v 208 h 40.800777 1.59961 56.79883 c 0,0 61.60156,-1.99844 61.60156,-64.39844 0,0 2.79961,-50.80039 -36.40039,-50.40039 0,0 29.59961,-2.00078 29.59961,-38.80078 0,-36.8 -24.39922,-54.40039 -55.19922,-54.40039 H 140.4707 138.87109 Z M 298.4707,160 v 20 h 84 v -20 z m -156,24 h 48 7.19922 c 0,0 13.60156,-0.79961 13.60156,20.40039 0,21.2 -8.00117,23.59961 -17.20117,23.59961 H 142.4707 Z m 199.59961,15.60156 c -74.79983,0 -74.79883,79.19922 -74.79883,79.19922 0,0 -5.20117,78.80078 74.79883,78.80078 0,0 66.80078,2.39844 66.80078,-53.60156 H 374.4707 c 0,0 1.20078,20.80078 -31.19922,20.80078 0,0 -34.40039,3.19922 -34.40039,-36.80078 h 101.19922 c 0,0 10.8,-88.79844 -68,-88.39844 z m 0.80078,28.79883 c 30,0 29.59961,31.59961 29.59961,31.59961 h -64 c 0,0 4.40039,-31.59961 34.40039,-31.59961 z M 142.4707,260 h 55.19922 c 0,0 20.4,0.40078 20,28.80078 0,24 -15.19922,27.19922 -23.19922,27.19922 h -3.59961 -48.40039 z"
       sodipodi:nodetypes="cccccccsscccccccccccsscccccccccccsccscccsccc" /></g></g>
<g
   id="g26">
</g>
<g
   id="g28">
</g>
<g
   id="g30">
</g>
<g
   id="g32">
</g>
<g
   id="g34">
</g>
<g
   id="g36">
</g>
<g
   id="g38">
</g>
<g
   id="g40">
</g>
<g
   id="g42">
</g>
<g
   id="g44">
</g>
<g
   id="g46">
</g>
<g
   id="g48">
</g>
<g
   id="g50">
</g>
<g
   id="g52">
</g>
<g
   id="g54">
</g>
</svg>
